<svg width="100" height="30" viewBox="0 0 100 30" fill="none" xmlns="http://www.w3.org/2000/svg">
<path d="M0 8C0 3.58172 3.58172 0 8 0H100V30H8C3.58172 30 0 26.4183 0 22V8Z" fill="#E6E7E9"/>
<g opacity="0.8">
<g opacity="0.5">
<path d="M21.4679 14.582V9.27276C21.4679 8.51792 22.0858 7.9 22.8407 7.9H29.2044H29.2045C29.3154 7.90002 29.4217 7.94409 29.5001 8.02251L21.4679 14.582ZM21.4679 14.582H20.7724C20.0176 14.582 19.3997 15.1999 19.3997 15.9547V20.7276C19.3997 21.4824 20.0176 22.1003 20.7724 22.1003H32.2272C32.9821 22.1003 33.6 21.4824 33.6 20.7276V15.9547C33.6 15.1999 32.9821 14.582 32.2272 14.582H31.8499V10.5455V10.5455C31.8499 10.4346 31.8059 10.3282 31.7274 10.2498C31.7274 10.2498 31.7274 10.2498 31.7274 10.2498L29.5001 8.02251L21.4679 14.582ZM30.2307 15.3706L30.2307 15.3706L29.8236 16.5924C29.8236 16.5924 29.8236 16.5924 29.8236 16.5924C29.78 16.7231 29.6604 16.8093 29.5226 16.8093H23.689C23.5605 16.8093 23.4506 16.7264 23.4153 16.6028L23.0704 15.3953L23.0704 15.3953C22.9628 15.0184 22.6668 14.7346 22.3043 14.629V9.27276C22.3043 8.96993 22.5378 8.73638 22.8407 8.73638H28.4681V10.2273C28.4681 10.8059 28.9441 11.2819 29.5226 11.2819H31.0136V14.6277C30.6526 14.7294 30.3536 15.0021 30.2307 15.3706ZM30.6174 16.857L30.6174 16.857L31.0245 15.6352C31.0245 15.6352 31.0245 15.6352 31.0245 15.6352C31.0681 15.5045 31.1877 15.4184 31.3255 15.4184H32.2272C32.5301 15.4184 32.7636 15.6519 32.7636 15.9547V20.7276C32.7636 21.0304 32.5301 21.2639 32.2272 21.2639H20.7724C20.4696 21.2639 20.236 21.0304 20.236 20.7276V15.9547C20.236 15.6519 20.4696 15.4184 20.7724 15.4184H21.9924C22.1208 15.4184 22.2307 15.5013 22.266 15.6249L22.6109 16.8324L22.707 16.8049L22.6109 16.8324C22.748 17.3122 23.1899 17.6457 23.689 17.6457H29.5226C30.0179 17.6457 30.4607 17.327 30.6174 16.857ZM29.3044 9.00955L30.7404 10.4455H29.5226C29.3961 10.4455 29.3044 10.3539 29.3044 10.2273V9.00955Z" fill="#070F21" stroke="#070F21" stroke-width="0.2"/>
<path d="M24.1134 11.4C24.0025 11.4 23.8961 11.4441 23.8177 11.5225C23.7393 11.6009 23.6952 11.7073 23.6952 11.8182C23.6952 11.9291 23.7393 12.0355 23.8177 12.1139C23.8961 12.1923 24.0025 12.2364 24.1134 12.2364H27.9317C28.0426 12.2364 28.149 12.1923 28.2274 12.1139C28.3058 12.0355 28.3499 11.9291 28.3499 11.8182C28.3499 11.7073 28.3058 11.6009 28.2274 11.5225C28.149 11.4441 28.0426 11.4 27.9317 11.4H24.1134Z" fill="#070F21" stroke="#070F21" stroke-width="0.2"/>
<path d="M24.1134 12.9908C24.0025 12.9908 23.8961 13.0349 23.8177 13.1133C23.7393 13.1917 23.6952 13.2981 23.6952 13.409C23.6952 13.5199 23.7393 13.6263 23.8177 13.7047C23.8961 13.7831 24.0025 13.8272 24.1134 13.8272H29.2044C29.3154 13.8272 29.4217 13.7831 29.5001 13.7047C29.5786 13.6263 29.6226 13.5199 29.6226 13.409C29.6226 13.2981 29.5786 13.1917 29.5001 13.1133C29.4217 13.0349 29.3154 12.9908 29.2044 12.9908H24.1134Z" fill="#070F21" stroke="#070F21" stroke-width="0.2"/>
<path d="M24.1134 14.5821C24.0025 14.5821 23.8961 14.6262 23.8177 14.7046C23.7393 14.783 23.6952 14.8894 23.6952 15.0003C23.6952 15.1112 23.7393 15.2176 23.8177 15.296C23.8961 15.3744 24.0025 15.4185 24.1134 15.4185H27.9317C28.0426 15.4185 28.149 15.3744 28.2274 15.296C28.3058 15.2176 28.3499 15.1112 28.3499 15.0003C28.3499 14.8894 28.3058 14.783 28.2274 14.7046C28.149 14.6262 28.0426 14.5821 27.9317 14.5821H24.1134Z" fill="#070F21" stroke="#070F21" stroke-width="0.2"/>
</g>
<path d="M39.9148 19H38.8068L42.0114 10.2727H43.1023L46.3068 19H45.1989L42.5909 11.6534H42.5227L39.9148 19ZM40.3239 15.5909H44.7898V16.5284H40.3239V15.5909ZM47.5298 19V12.4545H48.5014V13.4432H48.5696C48.6889 13.1193 48.9048 12.8565 49.2173 12.6548C49.5298 12.4531 49.8821 12.3523 50.2741 12.3523C50.348 12.3523 50.4403 12.3537 50.5511 12.3565C50.6619 12.3594 50.7457 12.3636 50.8026 12.3693V13.392C50.7685 13.3835 50.6903 13.3707 50.5682 13.3537C50.4489 13.3338 50.3224 13.3239 50.1889 13.3239C49.8707 13.3239 49.5866 13.3906 49.3366 13.5241C49.0895 13.6548 48.8935 13.8366 48.7486 14.0696C48.6065 14.2997 48.5355 14.5625 48.5355 14.858V19H47.5298ZM54.4545 19.1364C53.8409 19.1364 53.3125 18.9915 52.8693 18.7017C52.4261 18.4119 52.0852 18.0128 51.8466 17.5043C51.608 16.9957 51.4886 16.4148 51.4886 15.7614C51.4886 15.0966 51.6108 14.5099 51.8551 14.0014C52.1023 13.4901 52.446 13.0909 52.8864 12.804C53.3295 12.5142 53.8466 12.3693 54.4375 12.3693C54.8977 12.3693 55.3125 12.4545 55.6818 12.625C56.0511 12.7955 56.3537 13.0341 56.5895 13.3409C56.8253 13.6477 56.9716 14.0057 57.0284 14.4148H56.0227C55.946 14.1165 55.7756 13.8523 55.5114 13.6222C55.25 13.3892 54.8977 13.2727 54.4545 13.2727C54.0625 13.2727 53.7188 13.375 53.4233 13.5795C53.1307 13.7812 52.902 14.0668 52.7372 14.4361C52.5753 14.8026 52.4943 15.233 52.4943 15.7273C52.4943 16.233 52.5739 16.6733 52.733 17.0483C52.8949 17.4233 53.1222 17.7145 53.4148 17.9219C53.7102 18.1293 54.0568 18.233 54.4545 18.233C54.7159 18.233 54.9531 18.1875 55.1662 18.0966C55.3793 18.0057 55.5597 17.875 55.7074 17.7045C55.8551 17.5341 55.9602 17.3295 56.0227 17.0909H57.0284C56.9716 17.4773 56.831 17.8253 56.6065 18.1349C56.3849 18.4418 56.0909 18.6861 55.7244 18.8679C55.3608 19.0469 54.9375 19.1364 54.4545 19.1364ZM59.5043 15.0625V19H58.4986V10.2727H59.5043V13.4773H59.5895C59.7429 13.1392 59.973 12.8707 60.2798 12.6719C60.5895 12.4702 61.0014 12.3693 61.5156 12.3693C61.9616 12.3693 62.3523 12.4588 62.6875 12.6378C63.0227 12.8139 63.2827 13.0852 63.4673 13.4517C63.6548 13.8153 63.7486 14.2784 63.7486 14.8409V19H62.7429V14.9091C62.7429 14.3892 62.608 13.9872 62.3381 13.7031C62.071 13.4162 61.7003 13.2727 61.2259 13.2727C60.8963 13.2727 60.6009 13.3423 60.3395 13.4815C60.081 13.6207 59.8764 13.8239 59.7259 14.0909C59.5781 14.358 59.5043 14.6818 59.5043 15.0625ZM65.5884 19V12.4545H66.5941V19H65.5884ZM66.0998 11.3636C65.9038 11.3636 65.7347 11.2969 65.5927 11.1634C65.4535 11.0298 65.3839 10.8693 65.3839 10.6818C65.3839 10.4943 65.4535 10.3338 65.5927 10.2003C65.7347 10.0668 65.9038 10 66.0998 10C66.2958 10 66.4634 10.0668 66.6026 10.2003C66.7447 10.3338 66.8157 10.4943 66.8157 10.6818C66.8157 10.8693 66.7447 11.0298 66.6026 11.1634C66.4634 11.2969 66.2958 11.3636 66.0998 11.3636ZM73.7884 12.4545L71.3679 19H70.3452L67.9247 12.4545H69.0156L70.8224 17.6705H70.8906L72.6974 12.4545H73.7884ZM77.6257 19.1364C76.995 19.1364 76.451 18.9972 75.9936 18.7188C75.5391 18.4375 75.1882 18.0455 74.9411 17.5426C74.6967 17.0369 74.5746 16.4489 74.5746 15.7784C74.5746 15.108 74.6967 14.517 74.9411 14.0057C75.1882 13.4915 75.532 13.0909 75.9723 12.804C76.4155 12.5142 76.9325 12.3693 77.5234 12.3693C77.8643 12.3693 78.201 12.4261 78.5334 12.5398C78.8658 12.6534 79.1683 12.8381 79.4411 13.0938C79.7138 13.3466 79.9311 13.6818 80.093 14.0994C80.255 14.517 80.3359 15.0312 80.3359 15.642V16.0682H75.2905V15.1989H79.3132C79.3132 14.8295 79.2393 14.5 79.0916 14.2102C78.9467 13.9205 78.7393 13.6918 78.4695 13.5241C78.2024 13.3565 77.8871 13.2727 77.5234 13.2727C77.1229 13.2727 76.7763 13.3722 76.4837 13.571C76.1939 13.767 75.9709 14.0227 75.8146 14.3381C75.6584 14.6534 75.5803 14.9915 75.5803 15.3523V15.9318C75.5803 16.4261 75.6655 16.8452 75.8359 17.1889C76.0092 17.5298 76.2493 17.7898 76.5561 17.9688C76.8629 18.1449 77.2195 18.233 77.6257 18.233C77.8899 18.233 78.1286 18.196 78.3416 18.1222C78.5575 18.0455 78.7436 17.9318 78.8999 17.7812C79.0561 17.6278 79.1768 17.4375 79.2621 17.2102L80.2337 17.483C80.1314 17.8125 79.9595 18.1023 79.718 18.3523C79.4766 18.5994 79.1783 18.7926 78.8232 18.9318C78.468 19.0682 78.0689 19.1364 77.6257 19.1364Z" fill="#070F21"/>
</g>
</svg>
