<svg width="32" height="32" viewBox="0 0 32 32" fill="none" xmlns="http://www.w3.org/2000/svg">
<path d="M0 8C0 3.58172 3.58172 0 8 0H32V32H8C3.58172 32 0 28.4183 0 24V8Z" fill="#0E8CFF"/>
<path d="M9.98575 23.8446C9.73338 23.8436 9.49083 23.7393 9.31123 23.553C9.13146 23.3666 9.02947 23.1133 9.02857 22.8481V10.3744C9.02947 10.1093 9.13146 9.85595 9.31123 9.66953C9.49088 9.48322 9.73351 9.37885 9.98596 9.37794H10.5964V9.88905C10.5964 10.0765 10.6682 10.257 10.797 10.3906C10.926 10.5243 11.1017 10.6002 11.2857 10.6002C11.4697 10.6002 11.6454 10.5243 11.7744 10.3906C11.9032 10.257 11.975 10.0765 11.975 9.88905V9.37794H15.3107V9.88905C15.3107 10.0765 15.3825 10.257 15.5113 10.3906C15.6403 10.5243 15.816 10.6002 16 10.6002C16.184 10.6002 16.3597 10.5243 16.4887 10.3906C16.6175 10.257 16.6893 10.0765 16.6893 9.88905V9.37794H20.025V9.88905C20.025 10.0765 20.0968 10.257 20.2256 10.3906C20.3546 10.5243 20.5303 10.6002 20.7143 10.6002C20.8983 10.6002 21.074 10.5243 21.203 10.3906C21.3318 10.257 21.4036 10.0765 21.4036 9.88905V9.37794H22.014C22.2665 9.37885 22.5091 9.48322 22.6888 9.66953C22.8685 9.85593 22.9705 10.1092 22.9714 10.3743C22.9714 10.3744 22.9714 10.3745 22.9714 10.3746V22.8479C22.9714 22.848 22.9714 22.8481 22.9714 22.8482C22.9705 23.1133 22.8685 23.3666 22.6888 23.553L9.98575 23.8446ZM9.98575 23.8446C9.98587 23.8446 9.98598 23.8446 9.9861 23.8446M9.98575 23.8446L9.9861 23.8446M9.9861 23.8446H22.0139M22.0144 7.95572L22.0142 8.05572V7.95572H21.4036V7.44461C21.4036 7.25716 21.3318 7.07669 21.203 6.94307C21.074 6.80933 20.8983 6.7335 20.7143 6.7335C20.5303 6.7335 20.3546 6.80933 20.2256 6.94307C20.0968 7.07669 20.025 7.25716 20.025 7.44461V7.95572H16.6893V7.44461C16.6893 7.25716 16.6175 7.07669 16.4887 6.94307C16.3597 6.80933 16.184 6.7335 16 6.7335C15.816 6.7335 15.6403 6.80933 15.5113 6.94307C15.3825 7.07669 15.3107 7.25716 15.3107 7.44461V7.95572H11.975V7.44461C11.975 7.25716 11.9032 7.07669 11.7744 6.94307C11.6454 6.80933 11.4697 6.7335 11.2857 6.7335C11.1017 6.7335 10.926 6.80933 10.797 6.94307C10.6682 7.07669 10.5964 7.25716 10.5964 7.44461V7.95572L9.98575 7.95572L9.98559 7.95572C9.36525 7.95673 8.77138 8.21277 8.33388 8.66646C7.89651 9.12004 7.65097 9.73418 7.65 10.3741V10.3743L7.65 22.8483L7.65 22.8484C7.65097 23.4884 7.89651 24.1025 8.33388 24.5561C8.77138 25.0098 9.36525 25.2658 9.98559 25.2668H9.98575H22.0142H22.0144C22.6347 25.2658 23.2286 25.0098 23.6661 24.5561C24.1035 24.1025 24.349 23.4884 24.35 22.8484V22.8483V10.3743V10.3741C24.349 9.73418 24.1035 9.12004 23.6661 8.66646C23.2286 8.21277 22.6347 7.95673 22.0144 7.95572Z" fill="white" stroke="white" stroke-width="0.2"/>
<path d="M11.945 15.9151L11.945 15.9151C12.0874 16.0349 12.2772 16.1 12.4723 16.1C12.6674 16.1 12.8573 16.0349 12.9997 15.9151L12.9997 15.9151L14.9639 14.2609L14.964 14.2609L14.9653 14.2598C15.1042 14.1386 15.1851 13.9724 15.1833 13.7956C15.1815 13.6188 15.0972 13.4539 14.956 13.335C14.8152 13.2165 14.6279 13.1514 14.435 13.15C14.242 13.1486 14.0536 13.2109 13.9106 13.3272L13.9106 13.3272L13.9093 13.3283L12.4723 14.5384L11.6908 13.8802C11.6206 13.8192 11.5377 13.7713 11.4472 13.7386C11.3564 13.7057 11.2592 13.6886 11.1612 13.6879C11.0632 13.6871 10.9657 13.7028 10.8743 13.7343C10.7828 13.7658 10.6988 13.8127 10.6274 13.8728C10.5559 13.933 10.4983 14.0055 10.4588 14.0867C10.4193 14.168 10.3991 14.2559 10.4 14.345C10.401 14.4342 10.423 14.5217 10.4641 14.6023C10.505 14.6825 10.5638 14.7539 10.6361 14.8128L11.945 15.9151Z" fill="white" stroke="white" stroke-width="0.2"/>
<path d="M20.8889 14.0665H16.6111C16.4304 14.0665 16.2531 14.1201 16.119 14.2207C15.9843 14.3218 15.9 14.466 15.9 14.6248C15.9 14.7837 15.9843 14.9279 16.119 15.0289C16.2531 15.1295 16.4304 15.1832 16.6111 15.1832H20.8889C21.0696 15.1832 21.2469 15.1295 21.381 15.0289C21.5157 14.9279 21.6 14.7837 21.6 14.6248C21.6 14.466 21.5157 14.3218 21.381 14.2207C21.2469 14.1201 21.0696 14.0665 20.8889 14.0665Z" fill="white" stroke="white" stroke-width="0.2"/>
<path d="M13.9106 18.8272L13.9106 18.8272L13.9093 18.8283L12.4723 20.0384L11.6908 19.3802C11.6206 19.3192 11.5377 19.2713 11.4472 19.2386C11.3564 19.2057 11.2592 19.1886 11.1612 19.1879C11.0632 19.1871 10.9657 19.2028 10.8743 19.2343C10.7828 19.2658 10.6988 19.3127 10.6274 19.3728C10.5559 19.433 10.4983 19.5055 10.4588 19.5867C10.4193 19.668 10.3991 19.7559 10.4 19.845C10.401 19.9342 10.423 20.0217 10.4641 20.1023C10.505 20.1825 10.5638 20.2539 10.6361 20.3128L11.945 21.4151L11.945 21.4151C12.0874 21.5349 12.2772 21.6 12.4723 21.6C12.6674 21.6 12.8573 21.5349 12.9997 21.4151L12.9997 21.4151L14.9639 19.7609L14.964 19.7609L14.9653 19.7598C15.1042 19.6386 15.1851 19.4724 15.1833 19.2956C15.1815 19.1188 15.0972 18.9539 14.956 18.835C14.8152 18.7165 14.6279 18.6514 14.435 18.65C14.242 18.6486 14.0536 18.7109 13.9106 18.8272Z" fill="white" stroke="white" stroke-width="0.2"/>
<path d="M20.8889 19.5665H16.6111C16.4304 19.5665 16.2531 19.6201 16.119 19.7207C15.9843 19.8218 15.9 19.966 15.9 20.1248C15.9 20.2837 15.9843 20.4279 16.119 20.5289C16.2531 20.6295 16.4304 20.6832 16.6111 20.6832H20.8889C21.0696 20.6832 21.2469 20.6295 21.381 20.5289C21.5157 20.4279 21.6 20.2837 21.6 20.1248C21.6 19.966 21.5157 19.8218 21.381 19.7207C21.2469 19.6201 21.0696 19.5665 20.8889 19.5665Z" fill="white" stroke="white" stroke-width="0.2"/>
</svg>
