<svg width="14" height="14" viewBox="0 0 14 14" fill="none" xmlns="http://www.w3.org/2000/svg">
<g opacity="0.6" clip-path="url(#clip0_1_6651)">
<path d="M6.25882 11.859C7.20588 11.859 8.07059 11.6531 8.89411 11.2002L11.1176 13.4237C11.7353 14.0414 12.7647 14.0414 13.4235 13.4237C14.0824 12.8061 14.0824 11.7355 13.4235 11.1178L11.2 8.89431C11.6118 8.11196 11.8588 7.20608 11.8588 6.25902C11.8588 3.21196 9.34706 0.700195 6.25882 0.700195C3.21176 0.700195 0.699997 3.21196 0.699997 6.25902C0.699997 9.34725 3.21176 11.859 6.25882 11.859ZM12.8059 11.6943C13.1353 12.0237 13.1353 12.5178 12.8059 12.8473C12.4765 13.1767 11.9824 13.1767 11.6529 12.8473L9.55294 10.7473C10.0471 10.3767 10.3353 10.0884 10.7059 9.59431L12.8059 11.6943ZM6.25882 1.52372C8.89411 1.52372 10.9941 3.6649 10.9941 6.25902C10.9941 8.89431 8.85294 10.9943 6.25882 10.9943C3.6647 11.0355 1.52353 8.89431 1.52353 6.25902C1.52353 3.6649 3.6647 1.52372 6.25882 1.52372Z" fill="#070F21"/>
<path d="M3.78823 8.93549H8.72941C8.97647 8.93549 9.14117 8.77078 9.14117 8.52372V7.90608C9.14117 7.08255 8.48235 6.25902 7.94706 5.80608C8.07059 5.55902 8.11176 5.31196 8.11176 5.02372C8.11176 3.99431 7.28823 3.17078 6.25882 3.17078C5.22941 3.17078 4.40588 3.99431 4.40588 5.02372C4.40588 5.31196 4.48823 5.55902 4.57058 5.80608C3.95294 6.25902 3.37647 7.0002 3.37647 7.90608V8.52372C3.37647 8.77078 3.58235 8.93549 3.78823 8.93549ZM6.25882 3.99431C6.83529 3.99431 7.28823 4.44725 7.28823 5.02372C7.28823 5.6002 6.83529 6.05314 6.25882 6.05314C5.68235 6.05314 5.22941 5.6002 5.22941 5.02372C5.22941 4.44725 5.72353 3.99431 6.25882 3.99431ZM4.2 7.90608C4.2 7.32961 4.61176 6.79431 5.10588 6.4649C5.43529 6.71196 5.80588 6.87667 6.25882 6.87667C6.71176 6.87667 7.08235 6.71196 7.41176 6.4649C7.78235 6.75314 8.31764 7.41196 8.31764 7.90608V8.11196H4.2V7.90608Z" fill="#070F21"/>
</g>
<defs>
<clipPath id="clip0_1_6651">
<rect width="14" height="14" fill="white"/>
</clipPath>
</defs>
</svg>
