<svg width="100" height="30" viewBox="0 0 100 30" fill="none" xmlns="http://www.w3.org/2000/svg">
<path d="M0 0H92C96.4183 0 100 3.58172 100 8V22C100 26.4183 96.4183 30 92 30H0V0Z" fill="#E6E7E9"/>
<g opacity="0.5">
<mask id="path-2-outside-1_2_3298" maskUnits="userSpaceOnUse" x="18.1674" y="6.79297" width="16" height="16" fill="black">
<rect fill="white" x="18.1674" y="6.79297" width="16" height="16"/>
<path d="M19.3062 9.47477C19.7879 9.01866 21.4147 7.12927 21.9894 8.036C22.0691 8.16212 22.0954 8.31472 22.0625 8.46022C22.0296 8.60572 21.9403 8.73221 21.8142 8.81188C21.1949 9.20323 20.6329 9.67868 20.1444 10.2246C20.0918 10.2837 20.0272 10.331 19.955 10.3633C19.8827 10.3957 19.8045 10.4123 19.7253 10.4122C19.6174 10.4106 19.5123 10.3782 19.4222 10.3189C19.3321 10.2595 19.2608 10.1757 19.2168 10.0772C19.1727 9.97866 19.1577 9.86964 19.1736 9.76292C19.1894 9.6562 19.2354 9.55623 19.3062 9.47477ZM30.1116 8.81188C30.731 9.20352 31.2931 9.67904 31.782 10.2249C31.8346 10.2839 31.8992 10.3311 31.9715 10.3634C32.0437 10.3957 32.1219 10.4123 32.2011 10.4122C32.309 10.4106 32.4142 10.3782 32.5043 10.3188C32.5944 10.2594 32.6656 10.1756 32.7097 10.077C32.7537 9.97852 32.7687 9.86948 32.7528 9.76274C32.7369 9.65601 32.6909 9.55603 32.6201 9.47457C32.1367 9.0182 30.5141 7.13044 29.9364 8.03595C29.8568 8.16208 29.8305 8.31468 29.8633 8.46019C29.8962 8.6057 29.9855 8.73221 30.1116 8.81188ZM30.5384 20.4328C30.9002 20.0973 31.5576 19.5535 31.0283 19.0715C30.9149 18.9748 30.7678 18.9269 30.6192 18.9383C30.4705 18.9498 30.3325 19.0196 30.2352 19.1325C29.4876 20.0057 28.4904 20.6288 27.3779 20.918C26.2654 21.2072 25.091 21.1486 24.0128 20.7501C22.9346 20.3516 22.0044 19.6322 21.3474 18.689C20.6905 17.7457 20.3383 16.6238 20.3383 15.4743C20.3617 9.86087 27.736 7.73807 30.729 12.4861C30.8099 12.6092 30.9358 12.6957 31.0797 12.7271C31.2236 12.7584 31.3741 12.732 31.4988 12.6536C31.6235 12.5752 31.7125 12.451 31.7466 12.3077C31.7808 12.1644 31.7574 12.0135 31.6814 11.8872C31.0761 10.9171 30.2332 10.1175 29.2325 9.56405C28.2318 9.01065 27.1064 8.72178 25.9629 8.7248C19.8341 8.71858 16.9081 16.3477 21.3932 20.4273L20.5569 21.2637C20.5047 21.3159 20.4633 21.3779 20.435 21.4462C20.4067 21.5144 20.3922 21.5875 20.3922 21.6614C20.3922 21.7353 20.4067 21.8084 20.435 21.8766C20.4633 21.9449 20.5047 22.0069 20.5569 22.0591C20.6091 22.1113 20.6711 22.1527 20.7394 22.181C20.8076 22.2093 20.8807 22.2238 20.9546 22.2238C21.0285 22.2238 21.1016 22.2093 21.1698 22.181C21.2381 22.1527 21.3001 22.1113 21.3523 22.0591L22.2849 21.1262C23.3802 21.8358 24.6574 22.2132 25.9624 22.2129C27.2674 22.2126 28.5445 21.8346 29.6394 21.1245L30.5741 22.0591C30.6263 22.1116 30.6883 22.1533 30.7566 22.1818C30.8249 22.2103 30.8982 22.2251 30.9722 22.2252C31.0462 22.2253 31.1195 22.2108 31.1879 22.1826C31.2564 22.1543 31.3185 22.1128 31.3709 22.0605C31.4232 22.0081 31.4647 21.946 31.493 21.8775C31.5212 21.8091 31.5357 21.7358 31.5356 21.6618C31.5354 21.5878 31.5207 21.5145 31.4922 21.4462C31.4637 21.3779 31.422 21.3159 31.3694 21.2637L30.5384 20.4328ZM25.9629 11.3764C25.889 11.3764 25.8159 11.391 25.7476 11.4192C25.6794 11.4475 25.6174 11.4889 25.5652 11.5411C25.5129 11.5934 25.4715 11.6554 25.4432 11.7236C25.415 11.7919 25.4004 11.865 25.4005 11.9389V15.4743C25.4004 15.5482 25.415 15.6213 25.4432 15.6896C25.4715 15.7578 25.5129 15.8199 25.5652 15.8721C25.6174 15.9243 25.6794 15.9658 25.7476 15.994C25.8159 16.0223 25.889 16.0368 25.9629 16.0368H28.3199C28.4671 16.0339 28.6074 15.9734 28.7106 15.8682C28.8137 15.763 28.8715 15.6216 28.8715 15.4743C28.8715 15.327 28.8137 15.1856 28.7105 15.0804C28.6074 14.9753 28.4671 14.9147 28.3198 14.9119H26.5254V11.9389C26.5254 11.865 26.5109 11.7919 26.4826 11.7236C26.4543 11.6554 26.4129 11.5934 26.3607 11.5411C26.3084 11.4889 26.2464 11.4475 26.1782 11.4192C26.1099 11.391 26.0368 11.3764 25.9629 11.3764ZM33.2749 16.6863H32.1955L33.7143 14.7877C33.7789 14.7046 33.819 14.605 33.8301 14.5003C33.8413 14.3956 33.823 14.2898 33.7774 14.1949C33.7317 14.1 33.6605 14.0197 33.5718 13.963C33.483 13.9063 33.3802 13.8755 33.2749 13.874H31.025C30.8777 13.8768 30.7374 13.9373 30.6342 14.0425C30.531 14.1477 30.4732 14.2891 30.4732 14.4365C30.4732 14.5839 30.531 14.7253 30.6342 14.8305C30.7374 14.9357 30.8777 14.9962 31.0251 14.9989H32.1044L30.5856 16.8975C30.521 16.9807 30.4809 17.0803 30.4698 17.185C30.4586 17.2897 30.4769 17.3955 30.5225 17.4904C30.5682 17.5853 30.6394 17.6656 30.7282 17.7223C30.817 17.779 30.9198 17.8098 31.0251 17.8112H33.2749C33.4222 17.8084 33.5625 17.7479 33.6656 17.6427C33.7687 17.5375 33.8265 17.3961 33.8265 17.2488C33.8265 17.1015 33.7687 16.9601 33.6656 16.8549C33.5625 16.7497 33.4222 16.6892 33.2749 16.6863V16.6863Z"/>
</mask>
<path d="M19.3062 9.47477C19.7879 9.01866 21.4147 7.12927 21.9894 8.036C22.0691 8.16212 22.0954 8.31472 22.0625 8.46022C22.0296 8.60572 21.9403 8.73221 21.8142 8.81188C21.1949 9.20323 20.6329 9.67868 20.1444 10.2246C20.0918 10.2837 20.0272 10.331 19.955 10.3633C19.8827 10.3957 19.8045 10.4123 19.7253 10.4122C19.6174 10.4106 19.5123 10.3782 19.4222 10.3189C19.3321 10.2595 19.2608 10.1757 19.2168 10.0772C19.1727 9.97866 19.1577 9.86964 19.1736 9.76292C19.1894 9.6562 19.2354 9.55623 19.3062 9.47477ZM30.1116 8.81188C30.731 9.20352 31.2931 9.67904 31.782 10.2249C31.8346 10.2839 31.8992 10.3311 31.9715 10.3634C32.0437 10.3957 32.1219 10.4123 32.2011 10.4122C32.309 10.4106 32.4142 10.3782 32.5043 10.3188C32.5944 10.2594 32.6656 10.1756 32.7097 10.077C32.7537 9.97852 32.7687 9.86948 32.7528 9.76274C32.7369 9.65601 32.6909 9.55603 32.6201 9.47457C32.1367 9.0182 30.5141 7.13044 29.9364 8.03595C29.8568 8.16208 29.8305 8.31468 29.8633 8.46019C29.8962 8.6057 29.9855 8.73221 30.1116 8.81188ZM30.5384 20.4328C30.9002 20.0973 31.5576 19.5535 31.0283 19.0715C30.9149 18.9748 30.7678 18.9269 30.6192 18.9383C30.4705 18.9498 30.3325 19.0196 30.2352 19.1325C29.4876 20.0057 28.4904 20.6288 27.3779 20.918C26.2654 21.2072 25.091 21.1486 24.0128 20.7501C22.9346 20.3516 22.0044 19.6322 21.3474 18.689C20.6905 17.7457 20.3383 16.6238 20.3383 15.4743C20.3617 9.86087 27.736 7.73807 30.729 12.4861C30.8099 12.6092 30.9358 12.6957 31.0797 12.7271C31.2236 12.7584 31.3741 12.732 31.4988 12.6536C31.6235 12.5752 31.7125 12.451 31.7466 12.3077C31.7808 12.1644 31.7574 12.0135 31.6814 11.8872C31.0761 10.9171 30.2332 10.1175 29.2325 9.56405C28.2318 9.01065 27.1064 8.72178 25.9629 8.7248C19.8341 8.71858 16.9081 16.3477 21.3932 20.4273L20.5569 21.2637C20.5047 21.3159 20.4633 21.3779 20.435 21.4462C20.4067 21.5144 20.3922 21.5875 20.3922 21.6614C20.3922 21.7353 20.4067 21.8084 20.435 21.8766C20.4633 21.9449 20.5047 22.0069 20.5569 22.0591C20.6091 22.1113 20.6711 22.1527 20.7394 22.181C20.8076 22.2093 20.8807 22.2238 20.9546 22.2238C21.0285 22.2238 21.1016 22.2093 21.1698 22.181C21.2381 22.1527 21.3001 22.1113 21.3523 22.0591L22.2849 21.1262C23.3802 21.8358 24.6574 22.2132 25.9624 22.2129C27.2674 22.2126 28.5445 21.8346 29.6394 21.1245L30.5741 22.0591C30.6263 22.1116 30.6883 22.1533 30.7566 22.1818C30.8249 22.2103 30.8982 22.2251 30.9722 22.2252C31.0462 22.2253 31.1195 22.2108 31.1879 22.1826C31.2564 22.1543 31.3185 22.1128 31.3709 22.0605C31.4232 22.0081 31.4647 21.946 31.493 21.8775C31.5212 21.8091 31.5357 21.7358 31.5356 21.6618C31.5354 21.5878 31.5207 21.5145 31.4922 21.4462C31.4637 21.3779 31.422 21.3159 31.3694 21.2637L30.5384 20.4328ZM25.9629 11.3764C25.889 11.3764 25.8159 11.391 25.7476 11.4192C25.6794 11.4475 25.6174 11.4889 25.5652 11.5411C25.5129 11.5934 25.4715 11.6554 25.4432 11.7236C25.415 11.7919 25.4004 11.865 25.4005 11.9389V15.4743C25.4004 15.5482 25.415 15.6213 25.4432 15.6896C25.4715 15.7578 25.5129 15.8199 25.5652 15.8721C25.6174 15.9243 25.6794 15.9658 25.7476 15.994C25.8159 16.0223 25.889 16.0368 25.9629 16.0368H28.3199C28.4671 16.0339 28.6074 15.9734 28.7106 15.8682C28.8137 15.763 28.8715 15.6216 28.8715 15.4743C28.8715 15.327 28.8137 15.1856 28.7105 15.0804C28.6074 14.9753 28.4671 14.9147 28.3198 14.9119H26.5254V11.9389C26.5254 11.865 26.5109 11.7919 26.4826 11.7236C26.4543 11.6554 26.4129 11.5934 26.3607 11.5411C26.3084 11.4889 26.2464 11.4475 26.1782 11.4192C26.1099 11.391 26.0368 11.3764 25.9629 11.3764ZM33.2749 16.6863H32.1955L33.7143 14.7877C33.7789 14.7046 33.819 14.605 33.8301 14.5003C33.8413 14.3956 33.823 14.2898 33.7774 14.1949C33.7317 14.1 33.6605 14.0197 33.5718 13.963C33.483 13.9063 33.3802 13.8755 33.2749 13.874H31.025C30.8777 13.8768 30.7374 13.9373 30.6342 14.0425C30.531 14.1477 30.4732 14.2891 30.4732 14.4365C30.4732 14.5839 30.531 14.7253 30.6342 14.8305C30.7374 14.9357 30.8777 14.9962 31.0251 14.9989H32.1044L30.5856 16.8975C30.521 16.9807 30.4809 17.0803 30.4698 17.185C30.4586 17.2897 30.4769 17.3955 30.5225 17.4904C30.5682 17.5853 30.6394 17.6656 30.7282 17.7223C30.817 17.779 30.9198 17.8098 31.0251 17.8112H33.2749C33.4222 17.8084 33.5625 17.7479 33.6656 17.6427C33.7687 17.5375 33.8265 17.3961 33.8265 17.2488C33.8265 17.1015 33.7687 16.9601 33.6656 16.8549C33.5625 16.7497 33.4222 16.6892 33.2749 16.6863V16.6863Z" fill="#070F21"/>
<path d="M19.3062 9.47477C19.7879 9.01866 21.4147 7.12927 21.9894 8.036C22.0691 8.16212 22.0954 8.31472 22.0625 8.46022C22.0296 8.60572 21.9403 8.73221 21.8142 8.81188C21.1949 9.20323 20.6329 9.67868 20.1444 10.2246C20.0918 10.2837 20.0272 10.331 19.955 10.3633C19.8827 10.3957 19.8045 10.4123 19.7253 10.4122C19.6174 10.4106 19.5123 10.3782 19.4222 10.3189C19.3321 10.2595 19.2608 10.1757 19.2168 10.0772C19.1727 9.97866 19.1577 9.86964 19.1736 9.76292C19.1894 9.6562 19.2354 9.55623 19.3062 9.47477ZM30.1116 8.81188C30.731 9.20352 31.2931 9.67904 31.782 10.2249C31.8346 10.2839 31.8992 10.3311 31.9715 10.3634C32.0437 10.3957 32.1219 10.4123 32.2011 10.4122C32.309 10.4106 32.4142 10.3782 32.5043 10.3188C32.5944 10.2594 32.6656 10.1756 32.7097 10.077C32.7537 9.97852 32.7687 9.86948 32.7528 9.76274C32.7369 9.65601 32.6909 9.55603 32.6201 9.47457C32.1367 9.0182 30.5141 7.13044 29.9364 8.03595C29.8568 8.16208 29.8305 8.31468 29.8633 8.46019C29.8962 8.6057 29.9855 8.73221 30.1116 8.81188ZM30.5384 20.4328C30.9002 20.0973 31.5576 19.5535 31.0283 19.0715C30.9149 18.9748 30.7678 18.9269 30.6192 18.9383C30.4705 18.9498 30.3325 19.0196 30.2352 19.1325C29.4876 20.0057 28.4904 20.6288 27.3779 20.918C26.2654 21.2072 25.091 21.1486 24.0128 20.7501C22.9346 20.3516 22.0044 19.6322 21.3474 18.689C20.6905 17.7457 20.3383 16.6238 20.3383 15.4743C20.3617 9.86087 27.736 7.73807 30.729 12.4861C30.8099 12.6092 30.9358 12.6957 31.0797 12.7271C31.2236 12.7584 31.3741 12.732 31.4988 12.6536C31.6235 12.5752 31.7125 12.451 31.7466 12.3077C31.7808 12.1644 31.7574 12.0135 31.6814 11.8872C31.0761 10.9171 30.2332 10.1175 29.2325 9.56405C28.2318 9.01065 27.1064 8.72178 25.9629 8.7248C19.8341 8.71858 16.9081 16.3477 21.3932 20.4273L20.5569 21.2637C20.5047 21.3159 20.4633 21.3779 20.435 21.4462C20.4067 21.5144 20.3922 21.5875 20.3922 21.6614C20.3922 21.7353 20.4067 21.8084 20.435 21.8766C20.4633 21.9449 20.5047 22.0069 20.5569 22.0591C20.6091 22.1113 20.6711 22.1527 20.7394 22.181C20.8076 22.2093 20.8807 22.2238 20.9546 22.2238C21.0285 22.2238 21.1016 22.2093 21.1698 22.181C21.2381 22.1527 21.3001 22.1113 21.3523 22.0591L22.2849 21.1262C23.3802 21.8358 24.6574 22.2132 25.9624 22.2129C27.2674 22.2126 28.5445 21.8346 29.6394 21.1245L30.5741 22.0591C30.6263 22.1116 30.6883 22.1533 30.7566 22.1818C30.8249 22.2103 30.8982 22.2251 30.9722 22.2252C31.0462 22.2253 31.1195 22.2108 31.1879 22.1826C31.2564 22.1543 31.3185 22.1128 31.3709 22.0605C31.4232 22.0081 31.4647 21.946 31.493 21.8775C31.5212 21.8091 31.5357 21.7358 31.5356 21.6618C31.5354 21.5878 31.5207 21.5145 31.4922 21.4462C31.4637 21.3779 31.422 21.3159 31.3694 21.2637L30.5384 20.4328ZM25.9629 11.3764C25.889 11.3764 25.8159 11.391 25.7476 11.4192C25.6794 11.4475 25.6174 11.4889 25.5652 11.5411C25.5129 11.5934 25.4715 11.6554 25.4432 11.7236C25.415 11.7919 25.4004 11.865 25.4005 11.9389V15.4743C25.4004 15.5482 25.415 15.6213 25.4432 15.6896C25.4715 15.7578 25.5129 15.8199 25.5652 15.8721C25.6174 15.9243 25.6794 15.9658 25.7476 15.994C25.8159 16.0223 25.889 16.0368 25.9629 16.0368H28.3199C28.4671 16.0339 28.6074 15.9734 28.7106 15.8682C28.8137 15.763 28.8715 15.6216 28.8715 15.4743C28.8715 15.327 28.8137 15.1856 28.7105 15.0804C28.6074 14.9753 28.4671 14.9147 28.3198 14.9119H26.5254V11.9389C26.5254 11.865 26.5109 11.7919 26.4826 11.7236C26.4543 11.6554 26.4129 11.5934 26.3607 11.5411C26.3084 11.4889 26.2464 11.4475 26.1782 11.4192C26.1099 11.391 26.0368 11.3764 25.9629 11.3764ZM33.2749 16.6863H32.1955L33.7143 14.7877C33.7789 14.7046 33.819 14.605 33.8301 14.5003C33.8413 14.3956 33.823 14.2898 33.7774 14.1949C33.7317 14.1 33.6605 14.0197 33.5718 13.963C33.483 13.9063 33.3802 13.8755 33.2749 13.874H31.025C30.8777 13.8768 30.7374 13.9373 30.6342 14.0425C30.531 14.1477 30.4732 14.2891 30.4732 14.4365C30.4732 14.5839 30.531 14.7253 30.6342 14.8305C30.7374 14.9357 30.8777 14.9962 31.0251 14.9989H32.1044L30.5856 16.8975C30.521 16.9807 30.4809 17.0803 30.4698 17.185C30.4586 17.2897 30.4769 17.3955 30.5225 17.4904C30.5682 17.5853 30.6394 17.6656 30.7282 17.7223C30.817 17.779 30.9198 17.8098 31.0251 17.8112H33.2749C33.4222 17.8084 33.5625 17.7479 33.6656 17.6427C33.7687 17.5375 33.8265 17.3961 33.8265 17.2488C33.8265 17.1015 33.7687 16.9601 33.6656 16.8549C33.5625 16.7497 33.4222 16.6892 33.2749 16.6863V16.6863Z" stroke="#070F21" stroke-width="0.2" mask="url(#path-2-outside-1_2_3298)"/>
</g>
<path opacity="0.8" d="M44.3295 12.4545C44.2784 12.0227 44.071 11.6875 43.7074 11.4489C43.3438 11.2102 42.8977 11.0909 42.3693 11.0909C41.983 11.0909 41.6449 11.1534 41.3551 11.2784C41.0682 11.4034 40.8438 11.5753 40.6818 11.794C40.5227 12.0128 40.4432 12.2614 40.4432 12.5398C40.4432 12.7727 40.4986 12.973 40.6094 13.1406C40.723 13.3054 40.8679 13.4432 41.044 13.554C41.2202 13.6619 41.4048 13.7514 41.598 13.8224C41.7912 13.8906 41.9688 13.946 42.1307 13.9886L43.017 14.2273C43.2443 14.2869 43.4972 14.3693 43.7756 14.4744C44.0568 14.5795 44.3253 14.723 44.581 14.9048C44.8395 15.0838 45.0526 15.3139 45.2202 15.5952C45.3878 15.8764 45.4716 16.2216 45.4716 16.6307C45.4716 17.1023 45.348 17.5284 45.1009 17.9091C44.8565 18.2898 44.4986 18.5923 44.027 18.8168C43.5582 19.0412 42.9886 19.1534 42.3182 19.1534C41.6932 19.1534 41.152 19.0526 40.6946 18.8509C40.2401 18.6491 39.8821 18.3679 39.6207 18.0071C39.3622 17.6463 39.2159 17.2273 39.1818 16.75H40.2727C40.3011 17.0795 40.4119 17.3523 40.6051 17.5682C40.8011 17.7812 41.0483 17.9403 41.3466 18.0455C41.6477 18.1477 41.9716 18.1989 42.3182 18.1989C42.7216 18.1989 43.0838 18.1335 43.4048 18.0028C43.7259 17.8693 43.9801 17.6847 44.1676 17.4489C44.3551 17.2102 44.4489 16.9318 44.4489 16.6136C44.4489 16.3239 44.3679 16.0881 44.206 15.9062C44.044 15.7244 43.831 15.5767 43.5668 15.4631C43.3026 15.3494 43.017 15.25 42.7102 15.1648L41.6364 14.858C40.9545 14.6619 40.4148 14.3821 40.017 14.0185C39.6193 13.6548 39.4205 13.179 39.4205 12.5909C39.4205 12.1023 39.5526 11.6761 39.8168 11.3125C40.0838 10.946 40.4418 10.6619 40.8906 10.4602C41.3423 10.2557 41.8466 10.1534 42.4034 10.1534C42.9659 10.1534 43.4659 10.2543 43.9034 10.456C44.3409 10.6548 44.6875 10.9276 44.9432 11.2741C45.2017 11.6207 45.3381 12.0142 45.3523 12.4545H44.3295ZM48.0785 15.0625V19H47.0728V12.4545H48.0444V13.4773H48.1296C48.283 13.1449 48.516 12.8778 48.8285 12.6761C49.141 12.4716 49.5444 12.3693 50.0387 12.3693C50.4819 12.3693 50.8697 12.4602 51.2021 12.642C51.5344 12.821 51.793 13.0938 51.9776 13.4602C52.1623 13.8239 52.2546 14.2841 52.2546 14.8409V19H51.2489V14.9091C51.2489 14.3949 51.1154 13.9943 50.8484 13.7074C50.5813 13.4176 50.2148 13.2727 49.7489 13.2727C49.4279 13.2727 49.141 13.3423 48.8881 13.4815C48.6381 13.6207 48.4407 13.8239 48.2958 14.0909C48.1509 14.358 48.0785 14.6818 48.0785 15.0625ZM56.7514 19.1364C56.1605 19.1364 55.642 18.9957 55.196 18.7145C54.7528 18.4332 54.4062 18.0398 54.1562 17.5341C53.9091 17.0284 53.7855 16.4375 53.7855 15.7614C53.7855 15.0795 53.9091 14.4844 54.1562 13.9759C54.4062 13.4673 54.7528 13.0724 55.196 12.7912C55.642 12.5099 56.1605 12.3693 56.7514 12.3693C57.3423 12.3693 57.8594 12.5099 58.3026 12.7912C58.7486 13.0724 59.0952 13.4673 59.3423 13.9759C59.5923 14.4844 59.7173 15.0795 59.7173 15.7614C59.7173 16.4375 59.5923 17.0284 59.3423 17.5341C59.0952 18.0398 58.7486 18.4332 58.3026 18.7145C57.8594 18.9957 57.3423 19.1364 56.7514 19.1364ZM56.7514 18.233C57.2003 18.233 57.5696 18.1179 57.8594 17.8878C58.1491 17.6577 58.3636 17.3551 58.5028 16.9801C58.642 16.6051 58.7116 16.1989 58.7116 15.7614C58.7116 15.3239 58.642 14.9162 58.5028 14.5384C58.3636 14.1605 58.1491 13.8551 57.8594 13.6222C57.5696 13.3892 57.2003 13.2727 56.7514 13.2727C56.3026 13.2727 55.9332 13.3892 55.6435 13.6222C55.3537 13.8551 55.1392 14.1605 55 14.5384C54.8608 14.9162 54.7912 15.3239 54.7912 15.7614C54.7912 16.1989 54.8608 16.6051 55 16.9801C55.1392 17.3551 55.3537 17.6577 55.6435 17.8878C55.9332 18.1179 56.3026 18.233 56.7514 18.233ZM63.9116 19.1364C63.3207 19.1364 62.8022 18.9957 62.3562 18.7145C61.913 18.4332 61.5664 18.0398 61.3164 17.5341C61.0692 17.0284 60.9457 16.4375 60.9457 15.7614C60.9457 15.0795 61.0692 14.4844 61.3164 13.9759C61.5664 13.4673 61.913 13.0724 62.3562 12.7912C62.8022 12.5099 63.3207 12.3693 63.9116 12.3693C64.5025 12.3693 65.0195 12.5099 65.4627 12.7912C65.9087 13.0724 66.2553 13.4673 66.5025 13.9759C66.7525 14.4844 66.8775 15.0795 66.8775 15.7614C66.8775 16.4375 66.7525 17.0284 66.5025 17.5341C66.2553 18.0398 65.9087 18.4332 65.4627 18.7145C65.0195 18.9957 64.5025 19.1364 63.9116 19.1364ZM63.9116 18.233C64.3604 18.233 64.7298 18.1179 65.0195 17.8878C65.3093 17.6577 65.5238 17.3551 65.663 16.9801C65.8022 16.6051 65.8718 16.1989 65.8718 15.7614C65.8718 15.3239 65.8022 14.9162 65.663 14.5384C65.5238 14.1605 65.3093 13.8551 65.0195 13.6222C64.7298 13.3892 64.3604 13.2727 63.9116 13.2727C63.4627 13.2727 63.0934 13.3892 62.8036 13.6222C62.5138 13.8551 62.2994 14.1605 62.1602 14.5384C62.021 14.9162 61.9513 15.3239 61.9513 15.7614C61.9513 16.1989 62.021 16.6051 62.1602 16.9801C62.2994 17.3551 62.5138 17.6577 62.8036 17.8878C63.0934 18.1179 63.4627 18.233 63.9116 18.233ZM68.2251 19V18.233L71.9411 13.4602V13.392H68.3445V12.4545H73.2365V13.2557L69.6229 17.9943V18.0625H73.3558V19H68.2251ZM77.4616 19.1364C76.831 19.1364 76.2869 18.9972 75.8295 18.7188C75.375 18.4375 75.0241 18.0455 74.777 17.5426C74.5327 17.0369 74.4105 16.4489 74.4105 15.7784C74.4105 15.108 74.5327 14.517 74.777 14.0057C75.0241 13.4915 75.3679 13.0909 75.8082 12.804C76.2514 12.5142 76.7685 12.3693 77.3594 12.3693C77.7003 12.3693 78.0369 12.4261 78.3693 12.5398C78.7017 12.6534 79.0043 12.8381 79.277 13.0938C79.5497 13.3466 79.767 13.6818 79.929 14.0994C80.0909 14.517 80.1719 15.0312 80.1719 15.642V16.0682H75.1264V15.1989H79.1491C79.1491 14.8295 79.0753 14.5 78.9276 14.2102C78.7827 13.9205 78.5753 13.6918 78.3054 13.5241C78.0384 13.3565 77.723 13.2727 77.3594 13.2727C76.9588 13.2727 76.6122 13.3722 76.3196 13.571C76.0298 13.767 75.8068 14.0227 75.6506 14.3381C75.4943 14.6534 75.4162 14.9915 75.4162 15.3523V15.9318C75.4162 16.4261 75.5014 16.8452 75.6719 17.1889C75.8452 17.5298 76.0852 17.7898 76.392 17.9688C76.6989 18.1449 77.0554 18.233 77.4616 18.233C77.7259 18.233 77.9645 18.196 78.1776 18.1222C78.3935 18.0455 78.5795 17.9318 78.7358 17.7812C78.892 17.6278 79.0128 17.4375 79.098 17.2102L80.0696 17.483C79.9673 17.8125 79.7955 18.1023 79.554 18.3523C79.3125 18.5994 79.0142 18.7926 78.6591 18.9318C78.304 19.0682 77.9048 19.1364 77.4616 19.1364Z" fill="#070F21"/>
</svg>
